<svg id="Layer_1" enable-background="new 0 0 510 510" height="512" viewBox="0 0 510 510" width="512" xmlns="http://www.w3.org/2000/svg"><g><path d="m270 60h-30v30h-30v30h30v30h30v-30h30v-30h-30z"/><path d="m284.336 247.468-14.336 3.585v127.717c45.728 14.695 104.65 14.551 150 0v-127.717c-44.02-12.682-91.119-15.033-135.664-3.585zm105.664 107.881c-29.647 6.184-60.353 6.184-90 0v-25.349h90zm0-80.699v25.35h-90v-25.35c29.604-6.17 60.397-6.167 90 0z"/><path d="m510 210v-30h-30v-60h-120v-120h-210v120h-120v60h-30v30h30v270h-30v30h510v-30h-30v-270zm-330-180h150v150h-150zm-120 120h90v30h-90zm150 330h-90v-180h90zm240 0h-210v-210h-150v210h-30v-270h390zm0-300h-90v-30h90z"/></g></svg>