<svg id="Capa_1" data-name="Capa 1" xmlns="http://www.w3.org/2000/svg" viewBox="0 0 187.31 59.3"><defs><style>.cls-1{fill:#19233f;}.cls-2{fill:#6cb0a2;}.cls-3{fill:#fff;}</style></defs><path class="cls-1" d="M226.46,433.09a2.06,2.06,0,0,0-2-1.71A42.35,42.35,0,0,1,219,431l-.29-.07a2.05,2.05,0,0,1-.23-3.8,3.15,3.15,0,0,1,.69-.24c1.9-.36,4,.19,5.87-.19a3.17,3.17,0,0,0,1.16-.52,2,2,0,0,0,0-3.4,2.61,2.61,0,0,0-1.26-.47c-4.49-.2-9-.14-13.46-.11-1.12,0-2.23,0-3.34.06a2.49,2.49,0,0,1-1.66-.54,2.06,2.06,0,0,1-.1-3.41,1.59,1.59,0,0,1,.88-.34c7-.2,14-.06,21-.14,2,0,5.22.89,5.26-2.21a2.06,2.06,0,0,0-2.12-2.39c-1.28,0-2.56,0-3.84,0a12.73,12.73,0,0,1-3.65-.2,3,3,0,0,1-1.75-2.21,2.83,2.83,0,0,1,2-1.91c3.27-.22,6.56-.13,9.84-.1,1.8,0,3.64-.38,3.37-2.46-.1-.85-2.11-2-3.28-2.07-5.9-.21-11.81,0-17.71-.2a2,2,0,0,1-1.1-.55,2.06,2.06,0,0,1,.19-3.27,2.84,2.84,0,0,1,1.94-.62c4.42.19,8.86,0,13.28,0,3,0,5.92,0,8.88,0a3.87,3.87,0,0,0,3.91-2.08,14.55,14.55,0,0,1,25.65,13.65c-3.71,8-7.67,15.9-11.68,23.76-1.85,3.64-3.52,7.63-6.26,10.51a13.85,13.85,0,0,1-23-4.85A42.08,42.08,0,0,1,226.46,433.09Zm30.92-14.46a2.06,2.06,0,0,0,3.37-.47c1.59-3.23,3.1-6.23,4.39-9.32a9.87,9.87,0,0,0-4.43-12.37c-4.46-2.46-10.07-1.58-12.81,2.66a91,91,0,0,0-5.33,10.19,2.06,2.06,0,0,0,1.72,2.95A18.22,18.22,0,0,1,257.38,418.63Zm-15.24,1.59a2.06,2.06,0,0,0-3.26-2.4,9.28,9.28,0,0,0-1.55,2.45c-1.79,3.61-3.61,7.21-5.39,10.82a9.38,9.38,0,0,0-.83,5.69,2.06,2.06,0,0,0,4.08-.18,21.31,21.31,0,0,1,1.9-5.34C238.71,427.55,240.43,423.9,242.14,420.22Z" transform="translate(-204.26 -390.6)"/><path class="cls-2" d="M259.33,421.08c-4.51-6.37-10.24-9.33-18.23-8.79,2.42-4.76,4.24-9.2,6.8-13.16,2.74-4.24,8.35-5.12,12.81-2.66a9.87,9.87,0,0,1,4.43,12.37C263.48,412.84,261.43,416.69,259.33,421.08Z" transform="translate(-204.26 -390.6)"/><path class="cls-3" d="M243.62,417.05c-2.2,4.76-4.45,9.44-6.53,14.21-2.48,5.67-2.41,5.7-.81,12.12-4.58-1.66-6.67-7.56-4.34-12.29,1.78-3.61,3.6-7.21,5.39-10.82C238.92,417.07,239.61,416.7,243.62,417.05Z" transform="translate(-204.26 -390.6)"/><rect class="cls-1" y="17.66" width="11.81" height="4.59" rx="2.3"/><path class="cls-1" d="M387.55,427.78a4,4,0,1,1,4-4A4,4,0,0,1,387.55,427.78Zm0-7.57a3.55,3.55,0,1,0,3.54,3.54A3.55,3.55,0,0,0,387.55,420.21Z" transform="translate(-204.26 -390.6)"/><path class="cls-1" d="M389.63,425.71h-.9l-1.18-1.35h-.73v1.35h-.77v-4H388a1.34,1.34,0,0,1,1.45,1.34,1.19,1.19,0,0,1-1,1.27l1.22,1.38Zm-2.81-3.33v1.3H388a.65.65,0,1,0,0-1.3Z" transform="translate(-204.26 -390.6)"/><path class="cls-2" d="M336.73,424.53c3.07,2.12,3.91,5.23,2.24,8.14a6.7,6.7,0,0,1-4.83,3.14,13.2,13.2,0,0,1-2.51.26c-4,0-8.08,0-12.12,0-.18,0-.36,0-.63-.05.2-1.08.39-2.13.59-3.17,1.17-6,2.35-12,3.5-18,.1-.56.28-.77.89-.76,3.4.06,6.82,0,10.22.14a9,9,0,0,1,3.32.95,4.56,4.56,0,0,1,2.58,4.47,4.86,4.86,0,0,1-2.53,4.47l-.37.2ZM326.18,431c1.43,0,2.77,0,4.11,0a7,7,0,0,0,1.52-.18,1.76,1.76,0,0,0,1.49-1.91,1.62,1.62,0,0,0-1.75-1.54c-1.4-.07-2.8-.05-4.2,0a.62.62,0,0,0-.48.35C326.62,428.77,326.42,429.84,326.18,431Zm1.63-8.26c1.55,0,3,.09,4.42,0a1.79,1.79,0,0,0,1.52-2.16c-.08-.9-.64-1.41-1.72-1.46s-2,0-3.08,0c-.16,0-.44.15-.47.28C328.24,420.5,328,421.61,327.81,422.77Z" transform="translate(-204.26 -390.6)"/><path class="cls-1" d="M270,436c.24-1.3.48-2.56.72-3.81,1.11-5.73,2.23-11.45,3.32-17.18.13-.68.34-1,1.1-.94,2.71.08,5.42,0,8.12.16a13.32,13.32,0,0,1,4.11,1,5.9,5.9,0,0,1,3.77,5.22,11.07,11.07,0,0,1-.68,5.16,8,8,0,0,1-7.1,5.22,49.42,49.42,0,0,1-5.31.14c-.54,0-.78.13-.87.71-.18,1.24-.48,2.47-.7,3.71-.08.46-.23.68-.76.67-1.7,0-3.4,0-5.11,0C270.44,436.08,270.26,436.05,270,436Zm8.33-10.14h2.43c2.62,0,4-1.44,3.89-4.09a2.21,2.21,0,0,0-2-2.35,20.17,20.17,0,0,0-2.58-.11.64.64,0,0,0-.5.34C279.13,421.71,278.75,423.75,278.34,425.89Z" transform="translate(-204.26 -390.6)"/><path class="cls-2" d="M351.31,418.64a11.26,11.26,0,0,1,4.76,1,7.08,7.08,0,0,1,4.31,6.66c.09,4.48-1.95,8-5.57,9.43a11.47,11.47,0,0,1-8.87-.07c-3.17-1.31-4.75-4-4.55-7.61.27-4.69,2.85-8,7.08-9.06a10.48,10.48,0,0,1,1.38-.25C350.33,418.67,350.82,418.67,351.31,418.64Zm-3.57,9.27c0,1.62.56,2.59,1.68,3a3.16,3.16,0,0,0,3.52-.85,4.64,4.64,0,0,0,1.09-2.89,2.72,2.72,0,0,0-1.53-2.89,3.22,3.22,0,0,0-3.61.76A4.43,4.43,0,0,0,347.74,427.91Z" transform="translate(-204.26 -390.6)"/><path class="cls-2" d="M361.85,419.12h3.37c.84,0,1.68,0,2.52,0a.72.72,0,0,1,.78.52c.46,1.11,1,2.21,1.52,3.44a32.56,32.56,0,0,0,2.09-2.65,2.65,2.65,0,0,1,2.71-1.33c1.93.12,3.87,0,6,0-.26.32-.42.53-.59.73-2.06,2.35-4.1,4.72-6.19,7a1,1,0,0,0-.16,1.29c1.18,2.36,2.32,4.74,3.46,7.11.11.21.19.42.33.72-.27,0-.46.07-.65.07-1.7,0-3.41,0-5.11,0a.83.83,0,0,1-.89-.59c-.52-1.16-1.07-2.31-1.67-3.59-1,1.2-1.95,2.29-2.83,3.42a1.72,1.72,0,0,1-1.58.76c-1.89-.05-3.78,0-5.67,0-.23,0-.45,0-.82,0l.54-.67c2.15-2.49,4.28-5,6.47-7.45a1,1,0,0,0,.13-1.34c-1.17-2.23-2.29-4.49-3.43-6.73A7,7,0,0,1,361.85,419.12Z" transform="translate(-204.26 -390.6)"/><path class="cls-1" d="M320.23,412.56c-.4,2.09-.78,4.06-1.16,6-1.09,5.61-2.2,11.22-3.27,16.83-.1.52-.28.69-.81.68-1.83,0-3.67,0-5.62,0,.21-1.1.39-2.12.59-3.14q1.92-9.88,3.88-19.77c0-.23.31-.58.48-.58C316.25,412.54,318.18,412.56,320.23,412.56Z" transform="translate(-204.26 -390.6)"/><path class="cls-1" d="M300,436l.76-4c1.21-6.23,2.43-12.45,3.62-18.68.12-.64.32-.89,1-.86,1.79.06,3.59,0,5.46,0-.34,1.75-.66,3.42-1,5.08-1.16,5.93-2.33,11.86-3.46,17.79-.1.54-.32.67-.82.66-1.63,0-3.27,0-4.9,0C300.52,436.08,300.32,436.06,300,436Z" transform="translate(-204.26 -390.6)"/><path class="cls-1" d="M290.56,436l.94-4.92c.72-3.76,1.46-7.52,2.16-11.28.1-.51.26-.75.84-.73,1.63,0,3.27,0,4.9,0,.21,0,.41,0,.7,0-.05.32-.07.59-.12.85-1,5.13-2,10.26-3,15.4-.09.49-.26.7-.8.69-1.66,0-3.32,0-5,0C291,436.08,290.84,436.06,290.56,436Z" transform="translate(-204.26 -390.6)"/><path class="cls-1" d="M298,417.21a3.33,3.33,0,0,1-3.36-3.32,3.39,3.39,0,0,1,3.45-3.32,3.35,3.35,0,0,1,3.31,3.38A3.31,3.31,0,0,1,298,417.21Z" transform="translate(-204.26 -390.6)"/></svg>