<svg id="Capa_1" data-name="Capa 1" xmlns="http://www.w3.org/2000/svg" viewBox="0 0 66.21 59.3"><defs><style>.cls-1{fill:#19233f;}.cls-2{fill:#6cb0a2;}.cls-3{fill:#fff;}</style></defs><path class="cls-1" d="M259.57,432.14a2.07,2.07,0,0,0-2-1.71,42.35,42.35,0,0,1-5.45-.35,2.47,2.47,0,0,1-.29-.06,2.06,2.06,0,0,1-.23-3.81,2.44,2.44,0,0,1,.69-.23c1.9-.37,4,.18,5.87-.2a3.25,3.25,0,0,0,1.16-.52,2,2,0,0,0,0-3.39,2.63,2.63,0,0,0-1.27-.48c-4.48-.2-9-.14-13.46-.11-1.11,0-2.22,0-3.34.07a2.58,2.58,0,0,1-1.66-.55,2.06,2.06,0,0,1-.1-3.4,1.67,1.67,0,0,1,.89-.35c7-.2,14-.06,21-.14,2,0,5.21.9,5.26-2.21a2.05,2.05,0,0,0-2.12-2.38c-1.28,0-2.56,0-3.84,0a12.73,12.73,0,0,1-3.65-.2,3,3,0,0,1-1.75-2.21,2.82,2.82,0,0,1,2-1.9c3.27-.22,6.56-.14,9.84-.11,1.8,0,3.64-.38,3.37-2.46-.11-.84-2.11-2-3.28-2.06-5.9-.21-11.81,0-17.71-.21a1.92,1.92,0,0,1-1.11-.54,2.08,2.08,0,0,1,.2-3.28,2.77,2.77,0,0,1,1.94-.61c4.41.18,8.86,0,13.28,0,3,0,5.92.05,8.88.05a3.86,3.86,0,0,0,3.91-2.09,14.55,14.55,0,0,1,25.65,13.66c-3.71,8-7.67,15.89-11.68,23.75-1.86,3.64-3.52,7.63-6.27,10.52a13.85,13.85,0,0,1-23-4.85A41.37,41.37,0,0,1,259.57,432.14Zm30.91-14.46a2.07,2.07,0,0,0,3.38-.47c1.59-3.23,3.1-6.22,4.38-9.31a9.88,9.88,0,0,0-4.42-12.38c-4.46-2.45-10.07-1.58-12.82,2.66a94.48,94.48,0,0,0-5.33,10.19,2.06,2.06,0,0,0,1.73,2.95A18.2,18.2,0,0,1,290.48,417.68Zm-15.23,1.6a2.06,2.06,0,0,0-3.26-2.4,9.12,9.12,0,0,0-1.55,2.45c-1.79,3.61-3.61,7.2-5.39,10.82a9.43,9.43,0,0,0-.84,5.68,2.07,2.07,0,0,0,4.09-.17,21.48,21.48,0,0,1,1.9-5.35C271.81,426.61,273.53,423,275.25,419.28Z" transform="translate(-237.37 -389.65)"/><path class="cls-2" d="M292.43,420.14c-4.5-6.38-10.23-9.33-18.22-8.8,2.42-4.76,4.23-9.2,6.79-13.16,2.75-4.24,8.36-5.11,12.82-2.66a9.88,9.88,0,0,1,4.42,12.38C296.58,411.9,294.54,415.74,292.43,420.14Z" transform="translate(-237.37 -389.65)"/><path class="cls-3" d="M276.72,416.11c-2.19,4.75-4.44,9.44-6.52,14.2-2.48,5.68-2.42,5.71-.81,12.13-4.58-1.67-6.67-7.56-4.34-12.29,1.78-3.62,3.6-7.21,5.39-10.82C272,416.12,272.72,415.75,276.72,416.11Z" transform="translate(-237.37 -389.65)"/><rect class="cls-1" y="17.66" width="11.81" height="4.59" rx="2.3"/></svg>