<svg id="Capa_1" data-name="Capa 1" xmlns="http://www.w3.org/2000/svg" viewBox="0 0 39.71 35.57"><defs><style>.cls-1{fill:#19233f;}.cls-2{fill:#e7e6e6;}</style></defs><path class="cls-1" d="M255.06,428.21a1.23,1.23,0,0,0-1.19-1,25.32,25.32,0,0,1-3.27-.21l-.18,0a1.23,1.23,0,0,1-.14-2.28,1.73,1.73,0,0,1,.42-.14c1.14-.22,2.39.11,3.52-.12a2.06,2.06,0,0,0,.7-.31,1.23,1.23,0,0,0,0-2,1.54,1.54,0,0,0-.76-.28c-2.69-.12-5.38-.09-8.07-.07-.67,0-1.33,0-2,0a1.53,1.53,0,0,1-1-.33,1.23,1.23,0,0,1-.06-2,1.08,1.08,0,0,1,.53-.21c4.2-.11,8.39,0,12.59-.08,1.22,0,3.13.54,3.16-1.32a1.24,1.24,0,0,0-1.28-1.43c-.76,0-1.53,0-2.3,0a7.67,7.67,0,0,1-2.19-.12,1.77,1.77,0,0,1-1-1.32,1.7,1.7,0,0,1,1.2-1.14c2-.14,3.94-.09,5.9-.07,1.09,0,2.19-.23,2-1.47-.07-.51-1.27-1.22-2-1.24-3.54-.13-7.09,0-10.62-.13a1.19,1.19,0,0,1-.67-.32,1.25,1.25,0,0,1,.12-2,1.68,1.68,0,0,1,1.16-.37c2.65.12,5.32,0,8,0l5.33,0a2.3,2.3,0,0,0,2.34-1.25,8.73,8.73,0,0,1,15.38,8.19c-2.22,4.8-4.6,9.54-7,14.25-1.11,2.18-2.11,4.57-3.76,6.31a8.31,8.31,0,0,1-13.82-2.91A25.15,25.15,0,0,1,255.06,428.21Zm18.54-8.68a1.24,1.24,0,0,0,2-.28c.95-1.94,1.86-3.73,2.63-5.59a5.93,5.93,0,0,0-2.66-7.42,5.72,5.72,0,0,0-7.68,1.6,54.67,54.67,0,0,0-3.2,6.11,1.23,1.23,0,0,0,1,1.77A10.91,10.91,0,0,1,273.6,419.53Zm-9.13,1a1.24,1.24,0,0,0-2-1.44,5.34,5.34,0,0,0-.93,1.47c-1.07,2.17-2.16,4.32-3.23,6.49a5.58,5.58,0,0,0-.5,3.41,1.24,1.24,0,0,0,2.45-.1,12.39,12.39,0,0,1,1.13-3.21C262.4,424.89,263.44,422.7,264.47,420.49Z" transform="translate(-241.75 -402.72)"/><path class="cls-2" d="M274.77,421a11.44,11.44,0,0,0-10.93-5.28,86.19,86.19,0,0,1,4.08-7.89,5.72,5.72,0,0,1,7.68-1.6,5.93,5.93,0,0,1,2.66,7.42C277.26,416.06,276,418.37,274.77,421Z" transform="translate(-241.75 -402.72)"/><path class="cls-2" d="M265.35,418.59c-1.32,2.85-2.67,5.66-3.92,8.52-1.48,3.4-1.44,3.42-.48,7.27-2.75-1-4-4.53-2.6-7.37,1.07-2.17,2.16-4.32,3.23-6.49C262.53,418.6,263,418.38,265.35,418.59Z" transform="translate(-241.75 -402.72)"/><rect class="cls-1" y="10.59" width="7.08" height="2.75" rx="0.65"/></svg>