<svg id="Capa_1" data-name="Capa 1" xmlns="http://www.w3.org/2000/svg" viewBox="0 0 112.34 35.57"><defs><style>.cls-1{fill:#19233f;}.cls-2{fill:#e7e6e6;}</style></defs><path class="cls-1" d="M255.06,428.21a1.23,1.23,0,0,0-1.19-1,25.32,25.32,0,0,1-3.27-.21l-.18,0a1.23,1.23,0,0,1-.14-2.28,1.73,1.73,0,0,1,.42-.14c1.14-.22,2.39.11,3.52-.12a2.06,2.06,0,0,0,.7-.31,1.23,1.23,0,0,0,0-2,1.54,1.54,0,0,0-.76-.28c-2.69-.12-5.38-.09-8.07-.07-.67,0-1.33,0-2,0a1.53,1.53,0,0,1-1-.33,1.23,1.23,0,0,1-.06-2,1.08,1.08,0,0,1,.53-.21c4.2-.11,8.39,0,12.59-.08,1.22,0,3.13.54,3.16-1.32a1.24,1.24,0,0,0-1.28-1.43c-.76,0-1.53,0-2.3,0a7.67,7.67,0,0,1-2.19-.12,1.77,1.77,0,0,1-1-1.32,1.7,1.7,0,0,1,1.2-1.14c2-.14,3.94-.09,5.9-.07,1.09,0,2.19-.23,2-1.47-.07-.51-1.27-1.22-2-1.24-3.54-.13-7.09,0-10.62-.13a1.19,1.19,0,0,1-.67-.32,1.25,1.25,0,0,1,.12-2,1.68,1.68,0,0,1,1.16-.37c2.65.12,5.32,0,8,0l5.33,0a2.3,2.3,0,0,0,2.34-1.25,8.73,8.73,0,0,1,15.38,8.19c-2.22,4.8-4.6,9.54-7,14.25-1.11,2.18-2.11,4.57-3.76,6.31a8.31,8.31,0,0,1-13.82-2.91A25.15,25.15,0,0,1,255.06,428.21Zm18.54-8.68a1.24,1.24,0,0,0,2-.28c.95-1.94,1.86-3.73,2.63-5.59a5.93,5.93,0,0,0-2.66-7.42,5.72,5.72,0,0,0-7.68,1.6,54.67,54.67,0,0,0-3.2,6.11,1.23,1.23,0,0,0,1,1.77A10.91,10.91,0,0,1,273.6,419.53Zm-9.13,1a1.24,1.24,0,0,0-2-1.44,5.34,5.34,0,0,0-.93,1.47c-1.07,2.17-2.16,4.32-3.23,6.49a5.58,5.58,0,0,0-.5,3.41,1.24,1.24,0,0,0,2.45-.1,12.39,12.39,0,0,1,1.13-3.21C262.4,424.89,263.44,422.7,264.47,420.49Z" transform="translate(-241.75 -402.72)"/><path class="cls-2" d="M274.77,421a11.44,11.44,0,0,0-10.93-5.28,86.19,86.19,0,0,1,4.08-7.89,5.72,5.72,0,0,1,7.68-1.6,5.93,5.93,0,0,1,2.66,7.42C277.26,416.06,276,418.37,274.77,421Z" transform="translate(-241.75 -402.72)"/><path class="cls-2" d="M265.35,418.59c-1.32,2.85-2.67,5.66-3.92,8.52-1.48,3.4-1.44,3.42-.48,7.27-2.75-1-4-4.53-2.6-7.37,1.07-2.17,2.16-4.32,3.23-6.49C262.53,418.6,263,418.38,265.35,418.59Z" transform="translate(-241.75 -402.72)"/><rect class="cls-1" y="10.59" width="7.08" height="2.75" rx="0.65"/><path class="cls-1" d="M351.67,425a2.42,2.42,0,1,1,2.42-2.41A2.41,2.41,0,0,1,351.67,425Zm0-4.54a2.13,2.13,0,1,0,2.13,2.13A2.13,2.13,0,0,0,351.67,420.48Z" transform="translate(-241.75 -402.72)"/><path class="cls-1" d="M352.92,423.78h-.54l-.7-.81h-.44v.81h-.46v-2.42h1.15a.8.8,0,0,1,.87.8.71.71,0,0,1-.61.76l.73.83Zm-1.68-2v.77h.69a.39.39,0,1,0,0-.77Z" transform="translate(-241.75 -402.72)"/><path class="cls-1" d="M321.2,423.07c1.84,1.27,2.34,3.14,1.34,4.89a4,4,0,0,1-2.9,1.88,7.56,7.56,0,0,1-1.5.15c-2.42,0-4.85,0-7.27,0l-.38,0c.12-.65.23-1.28.35-1.9.7-3.6,1.41-7.2,2.1-10.8.07-.33.17-.46.54-.45,2,0,4.09,0,6.13.08a5.47,5.47,0,0,1,2,.57,2.76,2.76,0,0,1,1.55,2.69,2.94,2.94,0,0,1-1.52,2.67,2.39,2.39,0,0,1-.22.12Zm-6.33,3.9h2.46a4.72,4.72,0,0,0,.92-.11,1.06,1.06,0,0,0,.89-1.15,1,1,0,0,0-1.05-.92c-.84,0-1.68,0-2.52,0a.38.38,0,0,0-.29.21C315.13,425.62,315,426.26,314.87,427Zm1-5c.93,0,1.79.05,2.65,0a1.07,1.07,0,0,0,.91-1.29c-.05-.55-.38-.85-1-.88s-1.23,0-1.85,0a.34.34,0,0,0-.28.17C316.1,420.65,316,421.32,315.85,422Z" transform="translate(-241.75 -402.72)"/><path class="cls-1" d="M281.18,430c.15-.78.28-1.53.43-2.28q1-5.16,2-10.31c.08-.41.21-.58.66-.56,1.63.05,3.26,0,4.87.09a8.14,8.14,0,0,1,2.47.61,3.54,3.54,0,0,1,2.26,3.13,6.64,6.64,0,0,1-.41,3.09,4.79,4.79,0,0,1-4.25,3.14A30.89,30.89,0,0,1,286,427c-.32,0-.47.08-.52.42-.11.75-.29,1.49-.42,2.23-.05.28-.14.41-.46.4-1,0-2,0-3.06,0Zm5-6.08h1.46a2.11,2.11,0,0,0,2.34-2.45,1.32,1.32,0,0,0-1.23-1.41,11.42,11.42,0,0,0-1.55-.07.39.39,0,0,0-.29.2C286.65,421.38,286.42,422.6,286.17,423.89Z" transform="translate(-241.75 -402.72)"/><path class="cls-1" d="M329.94,419.54a6.71,6.71,0,0,1,2.86.6,4.22,4.22,0,0,1,2.58,4,5.59,5.59,0,0,1-3.34,5.66,6.91,6.91,0,0,1-5.32-.05,4.33,4.33,0,0,1-2.73-4.56,5.54,5.54,0,0,1,4.25-5.44c.27-.06.55-.11.82-.15S329.65,419.56,329.94,419.54Zm-2.14,5.56a1.69,1.69,0,0,0,1,1.81,1.89,1.89,0,0,0,2.11-.51,2.75,2.75,0,0,0,.65-1.73,1.65,1.65,0,0,0-.92-1.74,1.94,1.94,0,0,0-2.16.46A2.7,2.7,0,0,0,327.8,425.1Z" transform="translate(-241.75 -402.72)"/><path class="cls-1" d="M336.26,419.83h2c.51,0,1,0,1.51,0a.43.43,0,0,1,.47.31c.28.67.59,1.33.91,2.07.46-.57.91-1.05,1.26-1.59a1.58,1.58,0,0,1,1.62-.8c1.16.07,2.32,0,3.6,0-.16.19-.25.32-.36.43-1.23,1.42-2.46,2.83-3.71,4.23a.57.57,0,0,0-.09.77c.7,1.42,1.38,2.84,2.07,4.27.06.12.11.25.19.43a3.08,3.08,0,0,1-.38,0c-1,0-2.05,0-3.07,0a.49.49,0,0,1-.53-.35c-.31-.7-.65-1.39-1-2.15-.6.72-1.17,1.37-1.7,2.05a1,1,0,0,1-.95.45c-1.13,0-2.27,0-3.4,0l-.49,0,.32-.4c1.29-1.5,2.57-3,3.88-4.48a.59.59,0,0,0,.08-.8c-.7-1.34-1.37-2.69-2.06-4C336.39,420.14,336.34,420,336.26,419.83Z" transform="translate(-241.75 -402.72)"/><path class="cls-1" d="M311.3,415.89c-.24,1.26-.47,2.44-.7,3.62q-1,5-2,10.09c-.06.31-.16.41-.48.41-1.1,0-2.21,0-3.37,0,.12-.66.23-1.27.35-1.88q1.16-5.94,2.32-11.86c0-.14.19-.35.29-.35C308.91,415.88,310.07,415.89,311.3,415.89Z" transform="translate(-241.75 -402.72)"/><path class="cls-1" d="M299.18,430l.46-2.38q1.1-5.6,2.17-11.2c.08-.38.2-.53.61-.52,1.08,0,2.15,0,3.28,0-.21,1.05-.4,2.05-.59,3.05-.7,3.56-1.4,7.11-2.07,10.67-.07.33-.2.4-.5.4-1,0-2,0-2.94,0Z" transform="translate(-241.75 -402.72)"/><path class="cls-1" d="M293.5,430c.2-1,.38-2,.57-3,.43-2.25.87-4.5,1.29-6.76.06-.31.16-.45.51-.44,1,0,2,0,2.94,0l.42,0c0,.18-.05.34-.08.5-.59,3.08-1.19,6.16-1.77,9.24-.06.3-.16.42-.48.41-1,0-2,0-3,0Z" transform="translate(-241.75 -402.72)"/><path class="cls-1" d="M298,418.68a2,2,0,0,1-2-2,2,2,0,0,1,4.05,0A2,2,0,0,1,298,418.68Z" transform="translate(-241.75 -402.72)"/></svg>